<svg xmlns="http://www.w3.org/2000/svg" viewBox="0 0 433.5 433.5"><defs><style>.cls-1{fill:#ff4970;}.cls-2{fill:none;stroke:#fff;stroke-miterlimit:10;stroke-width:12px;}</style></defs><title>link</title><g id="Layer_1" data-name="Layer 1"><path class="cls-1" d="M408.27,31.5H45V394.85A70.15,70.15,0,0,0,115.15,465H408.27a70.23,70.23,0,0,0,70.23-70.23v-293A70.23,70.23,0,0,0,408.27,31.5Z" transform="translate(-45 -31.5)"/></g><g id="Layer_5" data-name="Layer 5"><path class="cls-2" d="M427.21,91.63H114.72A20.72,20.72,0,0,0,94,112.35V388.78a20.72,20.72,0,0,0,20.72,20.72H409.78a20.72,20.72,0,0,0,20.72-20.72V168.36" transform="translate(-45 -31.5)"/><path class="cls-2" d="M257.14,267.15l-1.51,33.91-59,52.57c-16.33,7.38-35.46,2.87-46.24-10.56-9.72-12.1-11-29.37-3-43.31l62-56.69,103.13,4.61,61.26-56c8.92-15.49,8.06-34.56-2.1-48.22-11.9-16-34.46-21.76-53.92-13L262.41,181q-1,21.56-1.93,43.09" transform="translate(-45 -31.5)"/></g></svg>